<?xml version="1.0" encoding="utf-8"?>
<svg xmlns="http://www.w3.org/2000/svg" width="790" height="154" viewBox="0 0 790 154" font-family="system, -apple-system, sans-serif">
  <text x="28" y="16" font-size="13" fill="#ccc" font-weight="600">6 hours in the last year</text>
  <text x="42" y="18" font-size="10" fill="#888">May</text>
<text x="98" y="18" font-size="10" fill="#888">Jun</text>
<text x="168" y="18" font-size="10" fill="#888">Jul</text>
<text x="224" y="18" font-size="10" fill="#888">Aug</text>
<text x="280" y="18" font-size="10" fill="#888">Sep</text>
<text x="350" y="18" font-size="10" fill="#888">Oct</text>
<text x="406" y="18" font-size="10" fill="#888">Nov</text>
<text x="462" y="18" font-size="10" fill="#888">Dec</text>
<text x="532" y="18" font-size="10" fill="#888">Jan</text>
<text x="588" y="18" font-size="10" fill="#888">Feb</text>
<text x="644" y="18" font-size="10" fill="#888">Mar</text>
<text x="714" y="18" font-size="10" fill="#888">Apr</text>
<text x="22" y="50" text-anchor="end" font-size="10" fill="#888">Mon</text>
<text x="22" y="78" text-anchor="end" font-size="10" fill="#888">Wed</text>
<text x="22" y="106" text-anchor="end" font-size="10" fill="#888">Fri</text>
<rect x="28" y="26" width="12" height="12" rx="2" fill="#1f1f23"><title>2025-04-28: 0.0h</title></rect>
<rect x="28" y="40" width="12" height="12" rx="2" fill="#1f1f23"><title>2025-04-29: 0.0h</title></rect>
<rect x="28" y="54" width="12" height="12" rx="2" fill="#1f1f23"><title>2025-04-30: 0.0h</title></rect>
<rect x="28" y="68" width="12" height="12" rx="2" fill="#1f1f23"><title>2025-05-01: 0.0h</title></rect>
<rect x="28" y="82" width="12" height="12" rx="2" fill="#1f1f23"><title>2025-05-02: 0.0h</title></rect>
<rect x="28" y="96" width="12" height="12" rx="2" fill="#1f1f23"><title>2025-05-03: 0.0h</title></rect>
<rect x="28" y="110" width="12" height="12" rx="2" fill="#1f1f23"><title>2025-05-04: 0.0h</title></rect>
<rect x="42" y="26" width="12" height="12" rx="2" fill="#1f1f23"><title>2025-05-05: 0.0h</title></rect>
<rect x="42" y="40" width="12" height="12" rx="2" fill="#1f1f23"><title>2025-05-06: 0.0h</title></rect>
<rect x="42" y="54" width="12" height="12" rx="2" fill="#1f1f23"><title>2025-05-07: 0.0h</title></rect>
<rect x="42" y="68" width="12" height="12" rx="2" fill="#1f1f23"><title>2025-05-08: 0.0h</title></rect>
<rect x="42" y="82" width="12" height="12" rx="2" fill="#1f1f23"><title>2025-05-09: 0.0h</title></rect>
<rect x="42" y="96" width="12" height="12" rx="2" fill="#1f1f23"><title>2025-05-10: 0.0h</title></rect>
<rect x="42" y="110" width="12" height="12" rx="2" fill="#1f1f23"><title>2025-05-11: 0.0h</title></rect>
<rect x="56" y="26" width="12" height="12" rx="2" fill="#1f1f23"><title>2025-05-12: 0.0h</title></rect>
<rect x="56" y="40" width="12" height="12" rx="2" fill="#1f1f23"><title>2025-05-13: 0.0h</title></rect>
<rect x="56" y="54" width="12" height="12" rx="2" fill="#1f1f23"><title>2025-05-14: 0.0h</title></rect>
<rect x="56" y="68" width="12" height="12" rx="2" fill="#1f1f23"><title>2025-05-15: 0.0h</title></rect>
<rect x="56" y="82" width="12" height="12" rx="2" fill="#1f1f23"><title>2025-05-16: 0.0h</title></rect>
<rect x="56" y="96" width="12" height="12" rx="2" fill="#1f1f23"><title>2025-05-17: 0.0h</title></rect>
<rect x="56" y="110" width="12" height="12" rx="2" fill="#1f1f23"><title>2025-05-18: 0.0h</title></rect>
<rect x="70" y="26" width="12" height="12" rx="2" fill="#1f1f23"><title>2025-05-19: 0.0h</title></rect>
<rect x="70" y="40" width="12" height="12" rx="2" fill="#1f1f23"><title>2025-05-20: 0.0h</title></rect>
<rect x="70" y="54" width="12" height="12" rx="2" fill="#1f1f23"><title>2025-05-21: 0.0h</title></rect>
<rect x="70" y="68" width="12" height="12" rx="2" fill="#1f1f23"><title>2025-05-22: 0.0h</title></rect>
<rect x="70" y="82" width="12" height="12" rx="2" fill="#1f1f23"><title>2025-05-23: 0.0h</title></rect>
<rect x="70" y="96" width="12" height="12" rx="2" fill="#1f1f23"><title>2025-05-24: 0.0h</title></rect>
<rect x="70" y="110" width="12" height="12" rx="2" fill="#1f1f23"><title>2025-05-25: 0.0h</title></rect>
<rect x="84" y="26" width="12" height="12" rx="2" fill="#1f1f23"><title>2025-05-26: 0.0h</title></rect>
<rect x="84" y="40" width="12" height="12" rx="2" fill="#1f1f23"><title>2025-05-27: 0.0h</title></rect>
<rect x="84" y="54" width="12" height="12" rx="2" fill="#1f1f23"><title>2025-05-28: 0.0h</title></rect>
<rect x="84" y="68" width="12" height="12" rx="2" fill="#1f1f23"><title>2025-05-29: 0.0h</title></rect>
<rect x="84" y="82" width="12" height="12" rx="2" fill="#1f1f23"><title>2025-05-30: 0.0h</title></rect>
<rect x="84" y="96" width="12" height="12" rx="2" fill="#1f1f23"><title>2025-05-31: 0.0h</title></rect>
<rect x="84" y="110" width="12" height="12" rx="2" fill="#1f1f23"><title>2025-06-01: 0.0h</title></rect>
<rect x="98" y="26" width="12" height="12" rx="2" fill="#1f1f23"><title>2025-06-02: 0.0h</title></rect>
<rect x="98" y="40" width="12" height="12" rx="2" fill="#1f1f23"><title>2025-06-03: 0.0h</title></rect>
<rect x="98" y="54" width="12" height="12" rx="2" fill="#1f1f23"><title>2025-06-04: 0.0h</title></rect>
<rect x="98" y="68" width="12" height="12" rx="2" fill="#1f1f23"><title>2025-06-05: 0.0h</title></rect>
<rect x="98" y="82" width="12" height="12" rx="2" fill="#1f1f23"><title>2025-06-06: 0.0h</title></rect>
<rect x="98" y="96" width="12" height="12" rx="2" fill="#1f1f23"><title>2025-06-07: 0.0h</title></rect>
<rect x="98" y="110" width="12" height="12" rx="2" fill="#1f1f23"><title>2025-06-08: 0.0h</title></rect>
<rect x="112" y="26" width="12" height="12" rx="2" fill="#1f1f23"><title>2025-06-09: 0.0h</title></rect>
<rect x="112" y="40" width="12" height="12" rx="2" fill="#1f1f23"><title>2025-06-10: 0.0h</title></rect>
<rect x="112" y="54" width="12" height="12" rx="2" fill="#1f1f23"><title>2025-06-11: 0.0h</title></rect>
<rect x="112" y="68" width="12" height="12" rx="2" fill="#1f1f23"><title>2025-06-12: 0.0h</title></rect>
<rect x="112" y="82" width="12" height="12" rx="2" fill="#1f1f23"><title>2025-06-13: 0.0h</title></rect>
<rect x="112" y="96" width="12" height="12" rx="2" fill="#1f1f23"><title>2025-06-14: 0.0h</title></rect>
<rect x="112" y="110" width="12" height="12" rx="2" fill="#1f1f23"><title>2025-06-15: 0.0h</title></rect>
<rect x="126" y="26" width="12" height="12" rx="2" fill="#1f1f23"><title>2025-06-16: 0.0h</title></rect>
<rect x="126" y="40" width="12" height="12" rx="2" fill="#1f1f23"><title>2025-06-17: 0.0h</title></rect>
<rect x="126" y="54" width="12" height="12" rx="2" fill="#1f1f23"><title>2025-06-18: 0.0h</title></rect>
<rect x="126" y="68" width="12" height="12" rx="2" fill="#1f1f23"><title>2025-06-19: 0.0h</title></rect>
<rect x="126" y="82" width="12" height="12" rx="2" fill="#1f1f23"><title>2025-06-20: 0.0h</title></rect>
<rect x="126" y="96" width="12" height="12" rx="2" fill="#1f1f23"><title>2025-06-21: 0.0h</title></rect>
<rect x="126" y="110" width="12" height="12" rx="2" fill="#1f1f23"><title>2025-06-22: 0.0h</title></rect>
<rect x="140" y="26" width="12" height="12" rx="2" fill="#1f1f23"><title>2025-06-23: 0.0h</title></rect>
<rect x="140" y="40" width="12" height="12" rx="2" fill="#1f1f23"><title>2025-06-24: 0.0h</title></rect>
<rect x="140" y="54" width="12" height="12" rx="2" fill="#1f1f23"><title>2025-06-25: 0.0h</title></rect>
<rect x="140" y="68" width="12" height="12" rx="2" fill="#1f1f23"><title>2025-06-26: 0.0h</title></rect>
<rect x="140" y="82" width="12" height="12" rx="2" fill="#1f1f23"><title>2025-06-27: 0.0h</title></rect>
<rect x="140" y="96" width="12" height="12" rx="2" fill="#1f1f23"><title>2025-06-28: 0.0h</title></rect>
<rect x="140" y="110" width="12" height="12" rx="2" fill="#1f1f23"><title>2025-06-29: 0.0h</title></rect>
<rect x="154" y="26" width="12" height="12" rx="2" fill="#1f1f23"><title>2025-06-30: 0.0h</title></rect>
<rect x="154" y="40" width="12" height="12" rx="2" fill="#1f1f23"><title>2025-07-01: 0.0h</title></rect>
<rect x="154" y="54" width="12" height="12" rx="2" fill="#1f1f23"><title>2025-07-02: 0.0h</title></rect>
<rect x="154" y="68" width="12" height="12" rx="2" fill="#1f1f23"><title>2025-07-03: 0.0h</title></rect>
<rect x="154" y="82" width="12" height="12" rx="2" fill="#1f1f23"><title>2025-07-04: 0.0h</title></rect>
<rect x="154" y="96" width="12" height="12" rx="2" fill="#1f1f23"><title>2025-07-05: 0.0h</title></rect>
<rect x="154" y="110" width="12" height="12" rx="2" fill="#1f1f23"><title>2025-07-06: 0.0h</title></rect>
<rect x="168" y="26" width="12" height="12" rx="2" fill="#1f1f23"><title>2025-07-07: 0.0h</title></rect>
<rect x="168" y="40" width="12" height="12" rx="2" fill="#1f1f23"><title>2025-07-08: 0.0h</title></rect>
<rect x="168" y="54" width="12" height="12" rx="2" fill="#1f1f23"><title>2025-07-09: 0.0h</title></rect>
<rect x="168" y="68" width="12" height="12" rx="2" fill="#1f1f23"><title>2025-07-10: 0.0h</title></rect>
<rect x="168" y="82" width="12" height="12" rx="2" fill="#1f1f23"><title>2025-07-11: 0.0h</title></rect>
<rect x="168" y="96" width="12" height="12" rx="2" fill="#1f1f23"><title>2025-07-12: 0.0h</title></rect>
<rect x="168" y="110" width="12" height="12" rx="2" fill="#1f1f23"><title>2025-07-13: 0.0h</title></rect>
<rect x="182" y="26" width="12" height="12" rx="2" fill="#1f1f23"><title>2025-07-14: 0.0h</title></rect>
<rect x="182" y="40" width="12" height="12" rx="2" fill="#1f1f23"><title>2025-07-15: 0.0h</title></rect>
<rect x="182" y="54" width="12" height="12" rx="2" fill="#1f1f23"><title>2025-07-16: 0.0h</title></rect>
<rect x="182" y="68" width="12" height="12" rx="2" fill="#1f1f23"><title>2025-07-17: 0.0h</title></rect>
<rect x="182" y="82" width="12" height="12" rx="2" fill="#1f1f23"><title>2025-07-18: 0.0h</title></rect>
<rect x="182" y="96" width="12" height="12" rx="2" fill="#1f1f23"><title>2025-07-19: 0.0h</title></rect>
<rect x="182" y="110" width="12" height="12" rx="2" fill="#1f1f23"><title>2025-07-20: 0.0h</title></rect>
<rect x="196" y="26" width="12" height="12" rx="2" fill="#1f1f23"><title>2025-07-21: 0.0h</title></rect>
<rect x="196" y="40" width="12" height="12" rx="2" fill="#1f1f23"><title>2025-07-22: 0.0h</title></rect>
<rect x="196" y="54" width="12" height="12" rx="2" fill="#1f1f23"><title>2025-07-23: 0.0h</title></rect>
<rect x="196" y="68" width="12" height="12" rx="2" fill="#1f1f23"><title>2025-07-24: 0.0h</title></rect>
<rect x="196" y="82" width="12" height="12" rx="2" fill="#1f1f23"><title>2025-07-25: 0.0h</title></rect>
<rect x="196" y="96" width="12" height="12" rx="2" fill="#1f1f23"><title>2025-07-26: 0.0h</title></rect>
<rect x="196" y="110" width="12" height="12" rx="2" fill="#1f1f23"><title>2025-07-27: 0.0h</title></rect>
<rect x="210" y="26" width="12" height="12" rx="2" fill="#1f1f23"><title>2025-07-28: 0.0h</title></rect>
<rect x="210" y="40" width="12" height="12" rx="2" fill="#1f1f23"><title>2025-07-29: 0.0h</title></rect>
<rect x="210" y="54" width="12" height="12" rx="2" fill="#1f1f23"><title>2025-07-30: 0.0h</title></rect>
<rect x="210" y="68" width="12" height="12" rx="2" fill="#1f1f23"><title>2025-07-31: 0.0h</title></rect>
<rect x="210" y="82" width="12" height="12" rx="2" fill="#1f1f23"><title>2025-08-01: 0.0h</title></rect>
<rect x="210" y="96" width="12" height="12" rx="2" fill="#1f1f23"><title>2025-08-02: 0.0h</title></rect>
<rect x="210" y="110" width="12" height="12" rx="2" fill="#1f1f23"><title>2025-08-03: 0.0h</title></rect>
<rect x="224" y="26" width="12" height="12" rx="2" fill="#1f1f23"><title>2025-08-04: 0.0h</title></rect>
<rect x="224" y="40" width="12" height="12" rx="2" fill="#1f1f23"><title>2025-08-05: 0.0h</title></rect>
<rect x="224" y="54" width="12" height="12" rx="2" fill="#1f1f23"><title>2025-08-06: 0.0h</title></rect>
<rect x="224" y="68" width="12" height="12" rx="2" fill="#1f1f23"><title>2025-08-07: 0.0h</title></rect>
<rect x="224" y="82" width="12" height="12" rx="2" fill="#1f1f23"><title>2025-08-08: 0.0h</title></rect>
<rect x="224" y="96" width="12" height="12" rx="2" fill="#1f1f23"><title>2025-08-09: 0.0h</title></rect>
<rect x="224" y="110" width="12" height="12" rx="2" fill="#1f1f23"><title>2025-08-10: 0.0h</title></rect>
<rect x="238" y="26" width="12" height="12" rx="2" fill="#1f1f23"><title>2025-08-11: 0.0h</title></rect>
<rect x="238" y="40" width="12" height="12" rx="2" fill="#1f1f23"><title>2025-08-12: 0.0h</title></rect>
<rect x="238" y="54" width="12" height="12" rx="2" fill="#1f1f23"><title>2025-08-13: 0.0h</title></rect>
<rect x="238" y="68" width="12" height="12" rx="2" fill="#1f1f23"><title>2025-08-14: 0.0h</title></rect>
<rect x="238" y="82" width="12" height="12" rx="2" fill="#1f1f23"><title>2025-08-15: 0.0h</title></rect>
<rect x="238" y="96" width="12" height="12" rx="2" fill="#1f1f23"><title>2025-08-16: 0.0h</title></rect>
<rect x="238" y="110" width="12" height="12" rx="2" fill="#1f1f23"><title>2025-08-17: 0.0h</title></rect>
<rect x="252" y="26" width="12" height="12" rx="2" fill="#1f1f23"><title>2025-08-18: 0.0h</title></rect>
<rect x="252" y="40" width="12" height="12" rx="2" fill="#1f1f23"><title>2025-08-19: 0.0h</title></rect>
<rect x="252" y="54" width="12" height="12" rx="2" fill="#1f1f23"><title>2025-08-20: 0.0h</title></rect>
<rect x="252" y="68" width="12" height="12" rx="2" fill="#1f1f23"><title>2025-08-21: 0.0h</title></rect>
<rect x="252" y="82" width="12" height="12" rx="2" fill="#1f1f23"><title>2025-08-22: 0.0h</title></rect>
<rect x="252" y="96" width="12" height="12" rx="2" fill="#1f1f23"><title>2025-08-23: 0.0h</title></rect>
<rect x="252" y="110" width="12" height="12" rx="2" fill="#1f1f23"><title>2025-08-24: 0.0h</title></rect>
<rect x="266" y="26" width="12" height="12" rx="2" fill="#1f1f23"><title>2025-08-25: 0.0h</title></rect>
<rect x="266" y="40" width="12" height="12" rx="2" fill="#1f1f23"><title>2025-08-26: 0.0h</title></rect>
<rect x="266" y="54" width="12" height="12" rx="2" fill="#1f1f23"><title>2025-08-27: 0.0h</title></rect>
<rect x="266" y="68" width="12" height="12" rx="2" fill="#1f1f23"><title>2025-08-28: 0.0h</title></rect>
<rect x="266" y="82" width="12" height="12" rx="2" fill="#1f1f23"><title>2025-08-29: 0.0h</title></rect>
<rect x="266" y="96" width="12" height="12" rx="2" fill="#1f1f23"><title>2025-08-30: 0.0h</title></rect>
<rect x="266" y="110" width="12" height="12" rx="2" fill="#1f1f23"><title>2025-08-31: 0.0h</title></rect>
<rect x="280" y="26" width="12" height="12" rx="2" fill="#1f1f23"><title>2025-09-01: 0.0h</title></rect>
<rect x="280" y="40" width="12" height="12" rx="2" fill="#1f1f23"><title>2025-09-02: 0.0h</title></rect>
<rect x="280" y="54" width="12" height="12" rx="2" fill="#1f1f23"><title>2025-09-03: 0.0h</title></rect>
<rect x="280" y="68" width="12" height="12" rx="2" fill="#1f1f23"><title>2025-09-04: 0.0h</title></rect>
<rect x="280" y="82" width="12" height="12" rx="2" fill="#1f1f23"><title>2025-09-05: 0.0h</title></rect>
<rect x="280" y="96" width="12" height="12" rx="2" fill="#1f1f23"><title>2025-09-06: 0.0h</title></rect>
<rect x="280" y="110" width="12" height="12" rx="2" fill="#1f1f23"><title>2025-09-07: 0.0h</title></rect>
<rect x="294" y="26" width="12" height="12" rx="2" fill="#1f1f23"><title>2025-09-08: 0.0h</title></rect>
<rect x="294" y="40" width="12" height="12" rx="2" fill="#1f1f23"><title>2025-09-09: 0.0h</title></rect>
<rect x="294" y="54" width="12" height="12" rx="2" fill="#1f1f23"><title>2025-09-10: 0.0h</title></rect>
<rect x="294" y="68" width="12" height="12" rx="2" fill="#1f1f23"><title>2025-09-11: 0.0h</title></rect>
<rect x="294" y="82" width="12" height="12" rx="2" fill="#1f1f23"><title>2025-09-12: 0.0h</title></rect>
<rect x="294" y="96" width="12" height="12" rx="2" fill="#1f1f23"><title>2025-09-13: 0.0h</title></rect>
<rect x="294" y="110" width="12" height="12" rx="2" fill="#1f1f23"><title>2025-09-14: 0.0h</title></rect>
<rect x="308" y="26" width="12" height="12" rx="2" fill="#1f1f23"><title>2025-09-15: 0.0h</title></rect>
<rect x="308" y="40" width="12" height="12" rx="2" fill="#1f1f23"><title>2025-09-16: 0.0h</title></rect>
<rect x="308" y="54" width="12" height="12" rx="2" fill="#1f1f23"><title>2025-09-17: 0.0h</title></rect>
<rect x="308" y="68" width="12" height="12" rx="2" fill="#1f1f23"><title>2025-09-18: 0.0h</title></rect>
<rect x="308" y="82" width="12" height="12" rx="2" fill="#1f1f23"><title>2025-09-19: 0.0h</title></rect>
<rect x="308" y="96" width="12" height="12" rx="2" fill="#1f1f23"><title>2025-09-20: 0.0h</title></rect>
<rect x="308" y="110" width="12" height="12" rx="2" fill="#1f1f23"><title>2025-09-21: 0.0h</title></rect>
<rect x="322" y="26" width="12" height="12" rx="2" fill="#1f1f23"><title>2025-09-22: 0.0h</title></rect>
<rect x="322" y="40" width="12" height="12" rx="2" fill="#1f1f23"><title>2025-09-23: 0.0h</title></rect>
<rect x="322" y="54" width="12" height="12" rx="2" fill="#1f1f23"><title>2025-09-24: 0.0h</title></rect>
<rect x="322" y="68" width="12" height="12" rx="2" fill="#1f1f23"><title>2025-09-25: 0.0h</title></rect>
<rect x="322" y="82" width="12" height="12" rx="2" fill="#1f1f23"><title>2025-09-26: 0.0h</title></rect>
<rect x="322" y="96" width="12" height="12" rx="2" fill="#1f1f23"><title>2025-09-27: 0.0h</title></rect>
<rect x="322" y="110" width="12" height="12" rx="2" fill="#1f1f23"><title>2025-09-28: 0.0h</title></rect>
<rect x="336" y="26" width="12" height="12" rx="2" fill="#1f1f23"><title>2025-09-29: 0.0h</title></rect>
<rect x="336" y="40" width="12" height="12" rx="2" fill="#1f1f23"><title>2025-09-30: 0.0h</title></rect>
<rect x="336" y="54" width="12" height="12" rx="2" fill="#1f1f23"><title>2025-10-01: 0.0h</title></rect>
<rect x="336" y="68" width="12" height="12" rx="2" fill="#1f1f23"><title>2025-10-02: 0.0h</title></rect>
<rect x="336" y="82" width="12" height="12" rx="2" fill="#1f1f23"><title>2025-10-03: 0.0h</title></rect>
<rect x="336" y="96" width="12" height="12" rx="2" fill="#1f1f23"><title>2025-10-04: 0.0h</title></rect>
<rect x="336" y="110" width="12" height="12" rx="2" fill="#1f1f23"><title>2025-10-05: 0.0h</title></rect>
<rect x="350" y="26" width="12" height="12" rx="2" fill="#1f1f23"><title>2025-10-06: 0.0h</title></rect>
<rect x="350" y="40" width="12" height="12" rx="2" fill="#1f1f23"><title>2025-10-07: 0.0h</title></rect>
<rect x="350" y="54" width="12" height="12" rx="2" fill="#1f1f23"><title>2025-10-08: 0.0h</title></rect>
<rect x="350" y="68" width="12" height="12" rx="2" fill="#1f1f23"><title>2025-10-09: 0.0h</title></rect>
<rect x="350" y="82" width="12" height="12" rx="2" fill="#1f1f23"><title>2025-10-10: 0.0h</title></rect>
<rect x="350" y="96" width="12" height="12" rx="2" fill="#1f1f23"><title>2025-10-11: 0.0h</title></rect>
<rect x="350" y="110" width="12" height="12" rx="2" fill="#1f1f23"><title>2025-10-12: 0.0h</title></rect>
<rect x="364" y="26" width="12" height="12" rx="2" fill="#1f1f23"><title>2025-10-13: 0.0h</title></rect>
<rect x="364" y="40" width="12" height="12" rx="2" fill="#1f1f23"><title>2025-10-14: 0.0h</title></rect>
<rect x="364" y="54" width="12" height="12" rx="2" fill="#1f1f23"><title>2025-10-15: 0.0h</title></rect>
<rect x="364" y="68" width="12" height="12" rx="2" fill="#1f1f23"><title>2025-10-16: 0.0h</title></rect>
<rect x="364" y="82" width="12" height="12" rx="2" fill="#1f1f23"><title>2025-10-17: 0.0h</title></rect>
<rect x="364" y="96" width="12" height="12" rx="2" fill="#1f1f23"><title>2025-10-18: 0.0h</title></rect>
<rect x="364" y="110" width="12" height="12" rx="2" fill="#1f1f23"><title>2025-10-19: 0.0h</title></rect>
<rect x="378" y="26" width="12" height="12" rx="2" fill="#1f1f23"><title>2025-10-20: 0.0h</title></rect>
<rect x="378" y="40" width="12" height="12" rx="2" fill="#1f1f23"><title>2025-10-21: 0.0h</title></rect>
<rect x="378" y="54" width="12" height="12" rx="2" fill="#1f1f23"><title>2025-10-22: 0.0h</title></rect>
<rect x="378" y="68" width="12" height="12" rx="2" fill="#1f1f23"><title>2025-10-23: 0.0h</title></rect>
<rect x="378" y="82" width="12" height="12" rx="2" fill="#1f1f23"><title>2025-10-24: 0.0h</title></rect>
<rect x="378" y="96" width="12" height="12" rx="2" fill="#1f1f23"><title>2025-10-25: 0.0h</title></rect>
<rect x="378" y="110" width="12" height="12" rx="2" fill="#1f1f23"><title>2025-10-26: 0.0h</title></rect>
<rect x="392" y="26" width="12" height="12" rx="2" fill="#1f1f23"><title>2025-10-27: 0.0h</title></rect>
<rect x="392" y="40" width="12" height="12" rx="2" fill="#1f1f23"><title>2025-10-28: 0.0h</title></rect>
<rect x="392" y="54" width="12" height="12" rx="2" fill="#1f1f23"><title>2025-10-29: 0.0h</title></rect>
<rect x="392" y="68" width="12" height="12" rx="2" fill="#1f1f23"><title>2025-10-30: 0.0h</title></rect>
<rect x="392" y="82" width="12" height="12" rx="2" fill="#1f1f23"><title>2025-10-31: 0.0h</title></rect>
<rect x="392" y="96" width="12" height="12" rx="2" fill="#1f1f23"><title>2025-11-01: 0.0h</title></rect>
<rect x="392" y="110" width="12" height="12" rx="2" fill="#1f1f23"><title>2025-11-02: 0.0h</title></rect>
<rect x="406" y="26" width="12" height="12" rx="2" fill="#1f1f23"><title>2025-11-03: 0.0h</title></rect>
<rect x="406" y="40" width="12" height="12" rx="2" fill="#1f1f23"><title>2025-11-04: 0.0h</title></rect>
<rect x="406" y="54" width="12" height="12" rx="2" fill="#1f1f23"><title>2025-11-05: 0.0h</title></rect>
<rect x="406" y="68" width="12" height="12" rx="2" fill="#1f1f23"><title>2025-11-06: 0.0h</title></rect>
<rect x="406" y="82" width="12" height="12" rx="2" fill="#1f1f23"><title>2025-11-07: 0.0h</title></rect>
<rect x="406" y="96" width="12" height="12" rx="2" fill="#1f1f23"><title>2025-11-08: 0.0h</title></rect>
<rect x="406" y="110" width="12" height="12" rx="2" fill="#1f1f23"><title>2025-11-09: 0.0h</title></rect>
<rect x="420" y="26" width="12" height="12" rx="2" fill="#1f1f23"><title>2025-11-10: 0.0h</title></rect>
<rect x="420" y="40" width="12" height="12" rx="2" fill="#1f1f23"><title>2025-11-11: 0.0h</title></rect>
<rect x="420" y="54" width="12" height="12" rx="2" fill="#1f1f23"><title>2025-11-12: 0.0h</title></rect>
<rect x="420" y="68" width="12" height="12" rx="2" fill="#1f1f23"><title>2025-11-13: 0.0h</title></rect>
<rect x="420" y="82" width="12" height="12" rx="2" fill="#1f1f23"><title>2025-11-14: 0.0h</title></rect>
<rect x="420" y="96" width="12" height="12" rx="2" fill="#1f1f23"><title>2025-11-15: 0.0h</title></rect>
<rect x="420" y="110" width="12" height="12" rx="2" fill="#1f1f23"><title>2025-11-16: 0.0h</title></rect>
<rect x="434" y="26" width="12" height="12" rx="2" fill="#1f1f23"><title>2025-11-17: 0.0h</title></rect>
<rect x="434" y="40" width="12" height="12" rx="2" fill="#1f1f23"><title>2025-11-18: 0.0h</title></rect>
<rect x="434" y="54" width="12" height="12" rx="2" fill="#1f1f23"><title>2025-11-19: 0.0h</title></rect>
<rect x="434" y="68" width="12" height="12" rx="2" fill="#1f1f23"><title>2025-11-20: 0.0h</title></rect>
<rect x="434" y="82" width="12" height="12" rx="2" fill="#1f1f23"><title>2025-11-21: 0.0h</title></rect>
<rect x="434" y="96" width="12" height="12" rx="2" fill="#1f1f23"><title>2025-11-22: 0.0h</title></rect>
<rect x="434" y="110" width="12" height="12" rx="2" fill="#1f1f23"><title>2025-11-23: 0.0h</title></rect>
<rect x="448" y="26" width="12" height="12" rx="2" fill="#1f1f23"><title>2025-11-24: 0.0h</title></rect>
<rect x="448" y="40" width="12" height="12" rx="2" fill="#1f1f23"><title>2025-11-25: 0.0h</title></rect>
<rect x="448" y="54" width="12" height="12" rx="2" fill="#1f1f23"><title>2025-11-26: 0.0h</title></rect>
<rect x="448" y="68" width="12" height="12" rx="2" fill="#1f1f23"><title>2025-11-27: 0.0h</title></rect>
<rect x="448" y="82" width="12" height="12" rx="2" fill="#1f1f23"><title>2025-11-28: 0.0h</title></rect>
<rect x="448" y="96" width="12" height="12" rx="2" fill="#1f1f23"><title>2025-11-29: 0.0h</title></rect>
<rect x="448" y="110" width="12" height="12" rx="2" fill="#1f1f23"><title>2025-11-30: 0.0h</title></rect>
<rect x="462" y="26" width="12" height="12" rx="2" fill="#1f1f23"><title>2025-12-01: 0.0h</title></rect>
<rect x="462" y="40" width="12" height="12" rx="2" fill="#1f1f23"><title>2025-12-02: 0.0h</title></rect>
<rect x="462" y="54" width="12" height="12" rx="2" fill="#1f1f23"><title>2025-12-03: 0.0h</title></rect>
<rect x="462" y="68" width="12" height="12" rx="2" fill="#1f1f23"><title>2025-12-04: 0.0h</title></rect>
<rect x="462" y="82" width="12" height="12" rx="2" fill="#1f1f23"><title>2025-12-05: 0.0h</title></rect>
<rect x="462" y="96" width="12" height="12" rx="2" fill="#1f1f23"><title>2025-12-06: 0.0h</title></rect>
<rect x="462" y="110" width="12" height="12" rx="2" fill="#1f1f23"><title>2025-12-07: 0.0h</title></rect>
<rect x="476" y="26" width="12" height="12" rx="2" fill="#1f1f23"><title>2025-12-08: 0.0h</title></rect>
<rect x="476" y="40" width="12" height="12" rx="2" fill="#1f1f23"><title>2025-12-09: 0.0h</title></rect>
<rect x="476" y="54" width="12" height="12" rx="2" fill="#1f1f23"><title>2025-12-10: 0.0h</title></rect>
<rect x="476" y="68" width="12" height="12" rx="2" fill="#1f1f23"><title>2025-12-11: 0.0h</title></rect>
<rect x="476" y="82" width="12" height="12" rx="2" fill="#1f1f23"><title>2025-12-12: 0.0h</title></rect>
<rect x="476" y="96" width="12" height="12" rx="2" fill="#1f1f23"><title>2025-12-13: 0.0h</title></rect>
<rect x="476" y="110" width="12" height="12" rx="2" fill="#1f1f23"><title>2025-12-14: 0.0h</title></rect>
<rect x="490" y="26" width="12" height="12" rx="2" fill="#1f1f23"><title>2025-12-15: 0.0h</title></rect>
<rect x="490" y="40" width="12" height="12" rx="2" fill="#1f1f23"><title>2025-12-16: 0.0h</title></rect>
<rect x="490" y="54" width="12" height="12" rx="2" fill="#1f1f23"><title>2025-12-17: 0.0h</title></rect>
<rect x="490" y="68" width="12" height="12" rx="2" fill="#1f1f23"><title>2025-12-18: 0.0h</title></rect>
<rect x="490" y="82" width="12" height="12" rx="2" fill="#1f1f23"><title>2025-12-19: 0.0h</title></rect>
<rect x="490" y="96" width="12" height="12" rx="2" fill="#1f1f23"><title>2025-12-20: 0.0h</title></rect>
<rect x="490" y="110" width="12" height="12" rx="2" fill="#1f1f23"><title>2025-12-21: 0.0h</title></rect>
<rect x="504" y="26" width="12" height="12" rx="2" fill="#1f1f23"><title>2025-12-22: 0.0h</title></rect>
<rect x="504" y="40" width="12" height="12" rx="2" fill="#1f1f23"><title>2025-12-23: 0.0h</title></rect>
<rect x="504" y="54" width="12" height="12" rx="2" fill="#1f1f23"><title>2025-12-24: 0.0h</title></rect>
<rect x="504" y="68" width="12" height="12" rx="2" fill="#1f1f23"><title>2025-12-25: 0.0h</title></rect>
<rect x="504" y="82" width="12" height="12" rx="2" fill="#1f1f23"><title>2025-12-26: 0.0h</title></rect>
<rect x="504" y="96" width="12" height="12" rx="2" fill="#1f1f23"><title>2025-12-27: 0.0h</title></rect>
<rect x="504" y="110" width="12" height="12" rx="2" fill="#1f1f23"><title>2025-12-28: 0.0h</title></rect>
<rect x="518" y="26" width="12" height="12" rx="2" fill="#1f1f23"><title>2025-12-29: 0.0h</title></rect>
<rect x="518" y="40" width="12" height="12" rx="2" fill="#1f1f23"><title>2025-12-30: 0.0h</title></rect>
<rect x="518" y="54" width="12" height="12" rx="2" fill="#1f1f23"><title>2025-12-31: 0.0h</title></rect>
<rect x="518" y="68" width="12" height="12" rx="2" fill="#1f1f23"><title>2026-01-01: 0.0h</title></rect>
<rect x="518" y="82" width="12" height="12" rx="2" fill="#1f1f23"><title>2026-01-02: 0.0h</title></rect>
<rect x="518" y="96" width="12" height="12" rx="2" fill="#1f1f23"><title>2026-01-03: 0.0h</title></rect>
<rect x="518" y="110" width="12" height="12" rx="2" fill="#1f1f23"><title>2026-01-04: 0.0h</title></rect>
<rect x="532" y="26" width="12" height="12" rx="2" fill="#1f1f23"><title>2026-01-05: 0.0h</title></rect>
<rect x="532" y="40" width="12" height="12" rx="2" fill="#1f1f23"><title>2026-01-06: 0.0h</title></rect>
<rect x="532" y="54" width="12" height="12" rx="2" fill="#1f1f23"><title>2026-01-07: 0.0h</title></rect>
<rect x="532" y="68" width="12" height="12" rx="2" fill="#1f1f23"><title>2026-01-08: 0.0h</title></rect>
<rect x="532" y="82" width="12" height="12" rx="2" fill="#1f1f23"><title>2026-01-09: 0.0h</title></rect>
<rect x="532" y="96" width="12" height="12" rx="2" fill="#1f1f23"><title>2026-01-10: 0.0h</title></rect>
<rect x="532" y="110" width="12" height="12" rx="2" fill="#1f1f23"><title>2026-01-11: 0.0h</title></rect>
<rect x="546" y="26" width="12" height="12" rx="2" fill="#1f1f23"><title>2026-01-12: 0.0h</title></rect>
<rect x="546" y="40" width="12" height="12" rx="2" fill="#1f1f23"><title>2026-01-13: 0.0h</title></rect>
<rect x="546" y="54" width="12" height="12" rx="2" fill="#1f1f23"><title>2026-01-14: 0.0h</title></rect>
<rect x="546" y="68" width="12" height="12" rx="2" fill="#1f1f23"><title>2026-01-15: 0.0h</title></rect>
<rect x="546" y="82" width="12" height="12" rx="2" fill="#1f1f23"><title>2026-01-16: 0.0h</title></rect>
<rect x="546" y="96" width="12" height="12" rx="2" fill="#1f1f23"><title>2026-01-17: 0.0h</title></rect>
<rect x="546" y="110" width="12" height="12" rx="2" fill="#1f1f23"><title>2026-01-18: 0.0h</title></rect>
<rect x="560" y="26" width="12" height="12" rx="2" fill="#1f1f23"><title>2026-01-19: 0.0h</title></rect>
<rect x="560" y="40" width="12" height="12" rx="2" fill="#1f1f23"><title>2026-01-20: 0.0h</title></rect>
<rect x="560" y="54" width="12" height="12" rx="2" fill="#1f1f23"><title>2026-01-21: 0.0h</title></rect>
<rect x="560" y="68" width="12" height="12" rx="2" fill="#1f1f23"><title>2026-01-22: 0.0h</title></rect>
<rect x="560" y="82" width="12" height="12" rx="2" fill="#1f1f23"><title>2026-01-23: 0.0h</title></rect>
<rect x="560" y="96" width="12" height="12" rx="2" fill="#1f1f23"><title>2026-01-24: 0.0h</title></rect>
<rect x="560" y="110" width="12" height="12" rx="2" fill="#1f1f23"><title>2026-01-25: 0.0h</title></rect>
<rect x="574" y="26" width="12" height="12" rx="2" fill="#1f1f23"><title>2026-01-26: 0.0h</title></rect>
<rect x="574" y="40" width="12" height="12" rx="2" fill="#1f1f23"><title>2026-01-27: 0.0h</title></rect>
<rect x="574" y="54" width="12" height="12" rx="2" fill="#1f1f23"><title>2026-01-28: 0.0h</title></rect>
<rect x="574" y="68" width="12" height="12" rx="2" fill="#1f1f23"><title>2026-01-29: 0.0h</title></rect>
<rect x="574" y="82" width="12" height="12" rx="2" fill="#1f1f23"><title>2026-01-30: 0.0h</title></rect>
<rect x="574" y="96" width="12" height="12" rx="2" fill="#1f1f23"><title>2026-01-31: 0.0h</title></rect>
<rect x="574" y="110" width="12" height="12" rx="2" fill="#1f1f23"><title>2026-02-01: 0.0h</title></rect>
<rect x="588" y="26" width="12" height="12" rx="2" fill="#1f1f23"><title>2026-02-02: 0.0h</title></rect>
<rect x="588" y="40" width="12" height="12" rx="2" fill="#1f1f23"><title>2026-02-03: 0.0h</title></rect>
<rect x="588" y="54" width="12" height="12" rx="2" fill="#1f1f23"><title>2026-02-04: 0.0h</title></rect>
<rect x="588" y="68" width="12" height="12" rx="2" fill="#1f1f23"><title>2026-02-05: 0.0h</title></rect>
<rect x="588" y="82" width="12" height="12" rx="2" fill="#1f1f23"><title>2026-02-06: 0.0h</title></rect>
<rect x="588" y="96" width="12" height="12" rx="2" fill="#1f1f23"><title>2026-02-07: 0.0h</title></rect>
<rect x="588" y="110" width="12" height="12" rx="2" fill="#1f1f23"><title>2026-02-08: 0.0h</title></rect>
<rect x="602" y="26" width="12" height="12" rx="2" fill="#1f1f23"><title>2026-02-09: 0.0h</title></rect>
<rect x="602" y="40" width="12" height="12" rx="2" fill="#1f1f23"><title>2026-02-10: 0.0h</title></rect>
<rect x="602" y="54" width="12" height="12" rx="2" fill="#1f1f23"><title>2026-02-11: 0.0h</title></rect>
<rect x="602" y="68" width="12" height="12" rx="2" fill="#1f1f23"><title>2026-02-12: 0.0h</title></rect>
<rect x="602" y="82" width="12" height="12" rx="2" fill="#1f1f23"><title>2026-02-13: 0.0h</title></rect>
<rect x="602" y="96" width="12" height="12" rx="2" fill="#1f1f23"><title>2026-02-14: 0.0h</title></rect>
<rect x="602" y="110" width="12" height="12" rx="2" fill="#1f1f23"><title>2026-02-15: 0.0h</title></rect>
<rect x="616" y="26" width="12" height="12" rx="2" fill="#1f1f23"><title>2026-02-16: 0.0h</title></rect>
<rect x="616" y="40" width="12" height="12" rx="2" fill="#1f1f23"><title>2026-02-17: 0.0h</title></rect>
<rect x="616" y="54" width="12" height="12" rx="2" fill="#1f1f23"><title>2026-02-18: 0.0h</title></rect>
<rect x="616" y="68" width="12" height="12" rx="2" fill="#1f1f23"><title>2026-02-19: 0.0h</title></rect>
<rect x="616" y="82" width="12" height="12" rx="2" fill="#1f1f23"><title>2026-02-20: 0.0h</title></rect>
<rect x="616" y="96" width="12" height="12" rx="2" fill="#1f1f23"><title>2026-02-21: 0.0h</title></rect>
<rect x="616" y="110" width="12" height="12" rx="2" fill="#1f1f23"><title>2026-02-22: 0.0h</title></rect>
<rect x="630" y="26" width="12" height="12" rx="2" fill="#1f1f23"><title>2026-02-23: 0.0h</title></rect>
<rect x="630" y="40" width="12" height="12" rx="2" fill="#1f1f23"><title>2026-02-24: 0.0h</title></rect>
<rect x="630" y="54" width="12" height="12" rx="2" fill="#1f1f23"><title>2026-02-25: 0.0h</title></rect>
<rect x="630" y="68" width="12" height="12" rx="2" fill="#1f1f23"><title>2026-02-26: 0.0h</title></rect>
<rect x="630" y="82" width="12" height="12" rx="2" fill="#1f1f23"><title>2026-02-27: 0.0h</title></rect>
<rect x="630" y="96" width="12" height="12" rx="2" fill="#1f1f23"><title>2026-02-28: 0.0h</title></rect>
<rect x="630" y="110" width="12" height="12" rx="2" fill="#1f1f23"><title>2026-03-01: 0.0h</title></rect>
<rect x="644" y="26" width="12" height="12" rx="2" fill="#1f1f23"><title>2026-03-02: 0.0h</title></rect>
<rect x="644" y="40" width="12" height="12" rx="2" fill="#1f1f23"><title>2026-03-03: 0.0h</title></rect>
<rect x="644" y="54" width="12" height="12" rx="2" fill="#1f1f23"><title>2026-03-04: 0.0h</title></rect>
<rect x="644" y="68" width="12" height="12" rx="2" fill="#1f1f23"><title>2026-03-05: 0.0h</title></rect>
<rect x="644" y="82" width="12" height="12" rx="2" fill="#1f1f23"><title>2026-03-06: 0.0h</title></rect>
<rect x="644" y="96" width="12" height="12" rx="2" fill="#1f1f23"><title>2026-03-07: 0.0h</title></rect>
<rect x="644" y="110" width="12" height="12" rx="2" fill="#1f1f23"><title>2026-03-08: 0.0h</title></rect>
<rect x="658" y="26" width="12" height="12" rx="2" fill="#1f1f23"><title>2026-03-09: 0.0h</title></rect>
<rect x="658" y="40" width="12" height="12" rx="2" fill="#1f1f23"><title>2026-03-10: 0.0h</title></rect>
<rect x="658" y="54" width="12" height="12" rx="2" fill="#1f1f23"><title>2026-03-11: 0.0h</title></rect>
<rect x="658" y="68" width="12" height="12" rx="2" fill="#1f1f23"><title>2026-03-12: 0.0h</title></rect>
<rect x="658" y="82" width="12" height="12" rx="2" fill="#1f1f23"><title>2026-03-13: 0.0h</title></rect>
<rect x="658" y="96" width="12" height="12" rx="2" fill="#1f1f23"><title>2026-03-14: 0.0h</title></rect>
<rect x="658" y="110" width="12" height="12" rx="2" fill="#1f1f23"><title>2026-03-15: 0.0h</title></rect>
<rect x="672" y="26" width="12" height="12" rx="2" fill="#1f1f23"><title>2026-03-16: 0.0h</title></rect>
<rect x="672" y="40" width="12" height="12" rx="2" fill="#1f1f23"><title>2026-03-17: 0.0h</title></rect>
<rect x="672" y="54" width="12" height="12" rx="2" fill="#1f1f23"><title>2026-03-18: 0.0h</title></rect>
<rect x="672" y="68" width="12" height="12" rx="2" fill="#1f1f23"><title>2026-03-19: 0.0h</title></rect>
<rect x="672" y="82" width="12" height="12" rx="2" fill="#1f1f23"><title>2026-03-20: 0.0h</title></rect>
<rect x="672" y="96" width="12" height="12" rx="2" fill="#1f1f23"><title>2026-03-21: 0.0h</title></rect>
<rect x="672" y="110" width="12" height="12" rx="2" fill="#1f1f23"><title>2026-03-22: 0.0h</title></rect>
<rect x="686" y="26" width="12" height="12" rx="2" fill="#1f1f23"><title>2026-03-23: 0.0h</title></rect>
<rect x="686" y="40" width="12" height="12" rx="2" fill="#1f1f23"><title>2026-03-24: 0.0h</title></rect>
<rect x="686" y="54" width="12" height="12" rx="2" fill="#1f1f23"><title>2026-03-25: 0.0h</title></rect>
<rect x="686" y="68" width="12" height="12" rx="2" fill="#1f1f23"><title>2026-03-26: 0.0h</title></rect>
<rect x="686" y="82" width="12" height="12" rx="2" fill="#1f1f23"><title>2026-03-27: 0.0h</title></rect>
<rect x="686" y="96" width="12" height="12" rx="2" fill="#1f1f23"><title>2026-03-28: 0.0h</title></rect>
<rect x="686" y="110" width="12" height="12" rx="2" fill="#1f1f23"><title>2026-03-29: 0.0h</title></rect>
<rect x="700" y="26" width="12" height="12" rx="2" fill="#1f1f23"><title>2026-03-30: 0.0h</title></rect>
<rect x="700" y="40" width="12" height="12" rx="2" fill="#1f1f23"><title>2026-03-31: 0.0h</title></rect>
<rect x="700" y="54" width="12" height="12" rx="2" fill="#1f1f23"><title>2026-04-01: 0.0h</title></rect>
<rect x="700" y="68" width="12" height="12" rx="2" fill="#1f1f23"><title>2026-04-02: 0.0h</title></rect>
<rect x="700" y="82" width="12" height="12" rx="2" fill="#1f1f23"><title>2026-04-03: 0.0h</title></rect>
<rect x="700" y="96" width="12" height="12" rx="2" fill="#1f1f23"><title>2026-04-04: 0.0h</title></rect>
<rect x="700" y="110" width="12" height="12" rx="2" fill="#1f1f23"><title>2026-04-05: 0.0h</title></rect>
<rect x="714" y="26" width="12" height="12" rx="2" fill="#1f1f23"><title>2026-04-06: 0.0h</title></rect>
<rect x="714" y="40" width="12" height="12" rx="2" fill="#1f1f23"><title>2026-04-07: 0.0h</title></rect>
<rect x="714" y="54" width="12" height="12" rx="2" fill="#1f1f23"><title>2026-04-08: 0.0h</title></rect>
<rect x="714" y="68" width="12" height="12" rx="2" fill="#1f1f23"><title>2026-04-09: 0.0h</title></rect>
<rect x="714" y="82" width="12" height="12" rx="2" fill="#1f1f23"><title>2026-04-10: 0.0h</title></rect>
<rect x="714" y="96" width="12" height="12" rx="2" fill="#1f1f23"><title>2026-04-11: 0.0h</title></rect>
<rect x="714" y="110" width="12" height="12" rx="2" fill="#1f1f23"><title>2026-04-12: 0.0h</title></rect>
<rect x="728" y="26" width="12" height="12" rx="2" fill="#1f1f23"><title>2026-04-13: 0.0h</title></rect>
<rect x="728" y="40" width="12" height="12" rx="2" fill="#1f1f23"><title>2026-04-14: 0.0h</title></rect>
<rect x="728" y="54" width="12" height="12" rx="2" fill="#1f1f23"><title>2026-04-15: 0.0h</title></rect>
<rect x="728" y="68" width="12" height="12" rx="2" fill="#1f1f23"><title>2026-04-16: 0.0h</title></rect>
<rect x="728" y="82" width="12" height="12" rx="2" fill="#1f1f23"><title>2026-04-17: 0.0h</title></rect>
<rect x="728" y="96" width="12" height="12" rx="2" fill="#1f1f23"><title>2026-04-18: 0.0h</title></rect>
<rect x="728" y="110" width="12" height="12" rx="2" fill="#1f1f23"><title>2026-04-19: 0.0h</title></rect>
<rect x="742" y="26" width="12" height="12" rx="2" fill="#1f1f23"><title>2026-04-20: 0.0h</title></rect>
<rect x="742" y="40" width="12" height="12" rx="2" fill="#1f1f23"><title>2026-04-21: 0.0h</title></rect>
<rect x="742" y="54" width="12" height="12" rx="2" fill="#1f1f23"><title>2026-04-22: 0.0h</title></rect>
<rect x="742" y="68" width="12" height="12" rx="2" fill="#1f1f23"><title>2026-04-23: 0.0h</title></rect>
<rect x="742" y="82" width="12" height="12" rx="2" fill="#1f1f23"><title>2026-04-24: 0.0h</title></rect>
<rect x="742" y="96" width="12" height="12" rx="2" fill="#1f1f23"><title>2026-04-25: 0.0h</title></rect>
<rect x="742" y="110" width="12" height="12" rx="2" fill="#1f1f23"><title>2026-04-26: 0.0h</title></rect>
<rect x="756" y="26" width="12" height="12" rx="2" fill="#1f1f23"><title>2026-04-27: 0.0h</title></rect>
<rect x="756" y="40" width="12" height="12" rx="2" fill="#1f1f23"><title>2026-04-28: 0.0h</title></rect>
<rect x="756" y="54" width="12" height="12" rx="2" fill="#1f1f23"><title>2026-04-29: 0.0h</title></rect>
<rect x="756" y="68" width="12" height="12" rx="2" fill="#26a641"><title>2026-04-30: 3.0h</title></rect>
<rect x="756" y="82" width="12" height="12" rx="2" fill="#1f1f23"><title>2026-05-01: 0.0h</title></rect>
<rect x="756" y="96" width="12" height="12" rx="2" fill="#26a641"><title>2026-05-02: 2.0h</title></rect>
<rect x="756" y="110" width="12" height="12" rx="2" fill="#0e4429"><title>2026-05-03: 0.9h</title></rect>
<text x="560" y="150" font-size="10" fill="#888">Less</text>
<rect x="590" y="140" width="12" height="12" rx="2" fill="#1f1f23"/>
<rect x="604" y="140" width="12" height="12" rx="2" fill="#0e4429"/>
<rect x="618" y="140" width="12" height="12" rx="2" fill="#006d32"/>
<rect x="632" y="140" width="12" height="12" rx="2" fill="#26a641"/>
<rect x="646" y="140" width="12" height="12" rx="2" fill="#39d353"/>
<text x="664" y="150" font-size="10" fill="#888">More</text>
</svg>
