<?xml version="1.0" encoding="utf-8"?>
<svg xmlns="http://www.w3.org/2000/svg" width="814" height="273" viewBox="0 0 814 273" font-family="system, -apple-system, sans-serif">
  <text x="64" y="28" text-anchor="middle" font-size="10" fill="#888">00</text>
  <text x="157" y="28" text-anchor="middle" font-size="10" fill="#888">03</text>
  <text x="250" y="28" text-anchor="middle" font-size="10" fill="#888">06</text>
  <text x="343" y="28" text-anchor="middle" font-size="10" fill="#888">09</text>
  <text x="436" y="28" text-anchor="middle" font-size="10" fill="#888">12</text>
  <text x="529" y="28" text-anchor="middle" font-size="10" fill="#888">15</text>
  <text x="622" y="28" text-anchor="middle" font-size="10" fill="#888">18</text>
  <text x="715" y="28" text-anchor="middle" font-size="10" fill="#888">21</text>
  <text x="42" y="56" text-anchor="end" font-size="10" fill="#888">Mon</text>
  <text x="42" y="87" text-anchor="end" font-size="10" fill="#888">Tue</text>
  <text x="42" y="118" text-anchor="end" font-size="10" fill="#888">Wed</text>
  <text x="42" y="149" text-anchor="end" font-size="10" fill="#888">Thu</text>
  <text x="42" y="180" text-anchor="end" font-size="10" fill="#888">Fri</text>
  <text x="42" y="211" text-anchor="end" font-size="10" fill="#888">Sat</text>
  <text x="42" y="242" text-anchor="end" font-size="10" fill="#888">Sun</text>
  <rect x="50" y="36" width="28" height="28" rx="3" fill="#1f1f23"><title>Mon 00:00 — 0 min</title></rect>
  <rect x="81" y="36" width="28" height="28" rx="3" fill="#1f1f23"><title>Mon 01:00 — 0 min</title></rect>
  <rect x="112" y="36" width="28" height="28" rx="3" fill="#1f1f23"><title>Mon 02:00 — 0 min</title></rect>
  <rect x="143" y="36" width="28" height="28" rx="3" fill="#1f1f23"><title>Mon 03:00 — 0 min</title></rect>
  <rect x="174" y="36" width="28" height="28" rx="3" fill="#1f1f23"><title>Mon 04:00 — 0 min</title></rect>
  <rect x="205" y="36" width="28" height="28" rx="3" fill="#1f1f23"><title>Mon 05:00 — 0 min</title></rect>
  <rect x="236" y="36" width="28" height="28" rx="3" fill="#1f1f23"><title>Mon 06:00 — 0 min</title></rect>
  <rect x="267" y="36" width="28" height="28" rx="3" fill="#1f1f23"><title>Mon 07:00 — 0 min</title></rect>
  <rect x="298" y="36" width="28" height="28" rx="3" fill="#1f1f23"><title>Mon 08:00 — 0 min</title></rect>
  <rect x="329" y="36" width="28" height="28" rx="3" fill="#1f1f23"><title>Mon 09:00 — 0 min</title></rect>
  <rect x="360" y="36" width="28" height="28" rx="3" fill="#1f1f23"><title>Mon 10:00 — 0 min</title></rect>
  <rect x="391" y="36" width="28" height="28" rx="3" fill="#1f1f23"><title>Mon 11:00 — 0 min</title></rect>
  <rect x="422" y="36" width="28" height="28" rx="3" fill="#1f1f23"><title>Mon 12:00 — 0 min</title></rect>
  <rect x="453" y="36" width="28" height="28" rx="3" fill="#1f1f23"><title>Mon 13:00 — 0 min</title></rect>
  <rect x="484" y="36" width="28" height="28" rx="3" fill="#1f1f23"><title>Mon 14:00 — 0 min</title></rect>
  <rect x="515" y="36" width="28" height="28" rx="3" fill="#1f1f23"><title>Mon 15:00 — 0 min</title></rect>
  <rect x="546" y="36" width="28" height="28" rx="3" fill="#1f1f23"><title>Mon 16:00 — 0 min</title></rect>
  <rect x="577" y="36" width="28" height="28" rx="3" fill="#1f1f23"><title>Mon 17:00 — 0 min</title></rect>
  <rect x="608" y="36" width="28" height="28" rx="3" fill="#1f1f23"><title>Mon 18:00 — 0 min</title></rect>
  <rect x="639" y="36" width="28" height="28" rx="3" fill="#1f1f23"><title>Mon 19:00 — 0 min</title></rect>
  <rect x="670" y="36" width="28" height="28" rx="3" fill="#1f1f23"><title>Mon 20:00 — 0 min</title></rect>
  <rect x="701" y="36" width="28" height="28" rx="3" fill="#1f1f23"><title>Mon 21:00 — 0 min</title></rect>
  <rect x="732" y="36" width="28" height="28" rx="3" fill="#1f1f23"><title>Mon 22:00 — 0 min</title></rect>
  <rect x="763" y="36" width="28" height="28" rx="3" fill="#1f1f23"><title>Mon 23:00 — 0 min</title></rect>
  <rect x="50" y="67" width="28" height="28" rx="3" fill="#1f1f23"><title>Tue 00:00 — 0 min</title></rect>
  <rect x="81" y="67" width="28" height="28" rx="3" fill="#1f1f23"><title>Tue 01:00 — 0 min</title></rect>
  <rect x="112" y="67" width="28" height="28" rx="3" fill="#1f1f23"><title>Tue 02:00 — 0 min</title></rect>
  <rect x="143" y="67" width="28" height="28" rx="3" fill="#1f1f23"><title>Tue 03:00 — 0 min</title></rect>
  <rect x="174" y="67" width="28" height="28" rx="3" fill="#1f1f23"><title>Tue 04:00 — 0 min</title></rect>
  <rect x="205" y="67" width="28" height="28" rx="3" fill="#1f1f23"><title>Tue 05:00 — 0 min</title></rect>
  <rect x="236" y="67" width="28" height="28" rx="3" fill="#1f1f23"><title>Tue 06:00 — 0 min</title></rect>
  <rect x="267" y="67" width="28" height="28" rx="3" fill="#1f1f23"><title>Tue 07:00 — 0 min</title></rect>
  <rect x="298" y="67" width="28" height="28" rx="3" fill="#1f1f23"><title>Tue 08:00 — 0 min</title></rect>
  <rect x="329" y="67" width="28" height="28" rx="3" fill="#1f1f23"><title>Tue 09:00 — 0 min</title></rect>
  <rect x="360" y="67" width="28" height="28" rx="3" fill="#1f1f23"><title>Tue 10:00 — 0 min</title></rect>
  <rect x="391" y="67" width="28" height="28" rx="3" fill="#1f1f23"><title>Tue 11:00 — 0 min</title></rect>
  <rect x="422" y="67" width="28" height="28" rx="3" fill="#1f1f23"><title>Tue 12:00 — 0 min</title></rect>
  <rect x="453" y="67" width="28" height="28" rx="3" fill="#1f1f23"><title>Tue 13:00 — 0 min</title></rect>
  <rect x="484" y="67" width="28" height="28" rx="3" fill="#1f1f23"><title>Tue 14:00 — 0 min</title></rect>
  <rect x="515" y="67" width="28" height="28" rx="3" fill="#1f1f23"><title>Tue 15:00 — 0 min</title></rect>
  <rect x="546" y="67" width="28" height="28" rx="3" fill="#1f1f23"><title>Tue 16:00 — 0 min</title></rect>
  <rect x="577" y="67" width="28" height="28" rx="3" fill="#1f1f23"><title>Tue 17:00 — 0 min</title></rect>
  <rect x="608" y="67" width="28" height="28" rx="3" fill="#1f1f23"><title>Tue 18:00 — 0 min</title></rect>
  <rect x="639" y="67" width="28" height="28" rx="3" fill="#1f1f23"><title>Tue 19:00 — 0 min</title></rect>
  <rect x="670" y="67" width="28" height="28" rx="3" fill="#1f1f23"><title>Tue 20:00 — 0 min</title></rect>
  <rect x="701" y="67" width="28" height="28" rx="3" fill="#1f1f23"><title>Tue 21:00 — 0 min</title></rect>
  <rect x="732" y="67" width="28" height="28" rx="3" fill="#1f1f23"><title>Tue 22:00 — 0 min</title></rect>
  <rect x="763" y="67" width="28" height="28" rx="3" fill="#1f1f23"><title>Tue 23:00 — 0 min</title></rect>
  <rect x="50" y="98" width="28" height="28" rx="3" fill="#1f1f23"><title>Wed 00:00 — 0 min</title></rect>
  <rect x="81" y="98" width="28" height="28" rx="3" fill="#1f1f23"><title>Wed 01:00 — 0 min</title></rect>
  <rect x="112" y="98" width="28" height="28" rx="3" fill="#1f1f23"><title>Wed 02:00 — 0 min</title></rect>
  <rect x="143" y="98" width="28" height="28" rx="3" fill="#1f1f23"><title>Wed 03:00 — 0 min</title></rect>
  <rect x="174" y="98" width="28" height="28" rx="3" fill="#1f1f23"><title>Wed 04:00 — 0 min</title></rect>
  <rect x="205" y="98" width="28" height="28" rx="3" fill="#1f1f23"><title>Wed 05:00 — 0 min</title></rect>
  <rect x="236" y="98" width="28" height="28" rx="3" fill="#1f1f23"><title>Wed 06:00 — 0 min</title></rect>
  <rect x="267" y="98" width="28" height="28" rx="3" fill="#1f1f23"><title>Wed 07:00 — 0 min</title></rect>
  <rect x="298" y="98" width="28" height="28" rx="3" fill="#1f1f23"><title>Wed 08:00 — 0 min</title></rect>
  <rect x="329" y="98" width="28" height="28" rx="3" fill="#1f1f23"><title>Wed 09:00 — 0 min</title></rect>
  <rect x="360" y="98" width="28" height="28" rx="3" fill="#1f1f23"><title>Wed 10:00 — 0 min</title></rect>
  <rect x="391" y="98" width="28" height="28" rx="3" fill="#1f1f23"><title>Wed 11:00 — 0 min</title></rect>
  <rect x="422" y="98" width="28" height="28" rx="3" fill="#1f1f23"><title>Wed 12:00 — 0 min</title></rect>
  <rect x="453" y="98" width="28" height="28" rx="3" fill="#1f1f23"><title>Wed 13:00 — 0 min</title></rect>
  <rect x="484" y="98" width="28" height="28" rx="3" fill="#1f1f23"><title>Wed 14:00 — 0 min</title></rect>
  <rect x="515" y="98" width="28" height="28" rx="3" fill="#1f1f23"><title>Wed 15:00 — 0 min</title></rect>
  <rect x="546" y="98" width="28" height="28" rx="3" fill="#1f1f23"><title>Wed 16:00 — 0 min</title></rect>
  <rect x="577" y="98" width="28" height="28" rx="3" fill="#1f1f23"><title>Wed 17:00 — 0 min</title></rect>
  <rect x="608" y="98" width="28" height="28" rx="3" fill="#1f1f23"><title>Wed 18:00 — 0 min</title></rect>
  <rect x="639" y="98" width="28" height="28" rx="3" fill="#1f1f23"><title>Wed 19:00 — 0 min</title></rect>
  <rect x="670" y="98" width="28" height="28" rx="3" fill="#1f1f23"><title>Wed 20:00 — 0 min</title></rect>
  <rect x="701" y="98" width="28" height="28" rx="3" fill="#1f1f23"><title>Wed 21:00 — 0 min</title></rect>
  <rect x="732" y="98" width="28" height="28" rx="3" fill="#1f1f23"><title>Wed 22:00 — 0 min</title></rect>
  <rect x="763" y="98" width="28" height="28" rx="3" fill="#1f1f23"><title>Wed 23:00 — 0 min</title></rect>
  <rect x="50" y="129" width="28" height="28" rx="3" fill="#1f1f23"><title>Thu 00:00 — 0 min</title></rect>
  <rect x="81" y="129" width="28" height="28" rx="3" fill="#1f1f23"><title>Thu 01:00 — 0 min</title></rect>
  <rect x="112" y="129" width="28" height="28" rx="3" fill="#1f1f23"><title>Thu 02:00 — 0 min</title></rect>
  <rect x="143" y="129" width="28" height="28" rx="3" fill="#1f1f23"><title>Thu 03:00 — 0 min</title></rect>
  <rect x="174" y="129" width="28" height="28" rx="3" fill="#1f1f23"><title>Thu 04:00 — 0 min</title></rect>
  <rect x="205" y="129" width="28" height="28" rx="3" fill="#1f1f23"><title>Thu 05:00 — 0 min</title></rect>
  <rect x="236" y="129" width="28" height="28" rx="3" fill="#1f1f23"><title>Thu 06:00 — 0 min</title></rect>
  <rect x="267" y="129" width="28" height="28" rx="3" fill="#1f1f23"><title>Thu 07:00 — 0 min</title></rect>
  <rect x="298" y="129" width="28" height="28" rx="3" fill="#1f1f23"><title>Thu 08:00 — 0 min</title></rect>
  <rect x="329" y="129" width="28" height="28" rx="3" fill="#1f1f23"><title>Thu 09:00 — 0 min</title></rect>
  <rect x="360" y="129" width="28" height="28" rx="3" fill="#1f1f23"><title>Thu 10:00 — 0 min</title></rect>
  <rect x="391" y="129" width="28" height="28" rx="3" fill="#1f1f23"><title>Thu 11:00 — 0 min</title></rect>
  <rect x="422" y="129" width="28" height="28" rx="3" fill="#1f1f23"><title>Thu 12:00 — 0 min</title></rect>
  <rect x="453" y="129" width="28" height="28" rx="3" fill="#1f1f23"><title>Thu 13:00 — 0 min</title></rect>
  <rect x="484" y="129" width="28" height="28" rx="3" fill="#1f1f23"><title>Thu 14:00 — 0 min</title></rect>
  <rect x="515" y="129" width="28" height="28" rx="3" fill="#1f1f23"><title>Thu 15:00 — 0 min</title></rect>
  <rect x="546" y="129" width="28" height="28" rx="3" fill="#1f1f23"><title>Thu 16:00 — 0 min</title></rect>
  <rect x="577" y="129" width="28" height="28" rx="3" fill="#1f1f23"><title>Thu 17:00 — 0 min</title></rect>
  <rect x="608" y="129" width="28" height="28" rx="3" fill="#1f1f23"><title>Thu 18:00 — 0 min</title></rect>
  <rect x="639" y="129" width="28" height="28" rx="3" fill="#1f1f23"><title>Thu 19:00 — 0 min</title></rect>
  <rect x="670" y="129" width="28" height="28" rx="3" fill="#006d32"><title>Thu 20:00 — 27 min</title></rect>
  <rect x="701" y="129" width="28" height="28" rx="3" fill="#39d353"><title>Thu 21:00 — 60 min</title></rect>
  <rect x="732" y="129" width="28" height="28" rx="3" fill="#39d353"><title>Thu 22:00 — 60 min</title></rect>
  <rect x="763" y="129" width="28" height="28" rx="3" fill="#26a641"><title>Thu 23:00 — 32 min</title></rect>
  <rect x="50" y="160" width="28" height="28" rx="3" fill="#1f1f23"><title>Fri 00:00 — 0 min</title></rect>
  <rect x="81" y="160" width="28" height="28" rx="3" fill="#1f1f23"><title>Fri 01:00 — 0 min</title></rect>
  <rect x="112" y="160" width="28" height="28" rx="3" fill="#1f1f23"><title>Fri 02:00 — 0 min</title></rect>
  <rect x="143" y="160" width="28" height="28" rx="3" fill="#1f1f23"><title>Fri 03:00 — 0 min</title></rect>
  <rect x="174" y="160" width="28" height="28" rx="3" fill="#1f1f23"><title>Fri 04:00 — 0 min</title></rect>
  <rect x="205" y="160" width="28" height="28" rx="3" fill="#1f1f23"><title>Fri 05:00 — 0 min</title></rect>
  <rect x="236" y="160" width="28" height="28" rx="3" fill="#1f1f23"><title>Fri 06:00 — 0 min</title></rect>
  <rect x="267" y="160" width="28" height="28" rx="3" fill="#1f1f23"><title>Fri 07:00 — 0 min</title></rect>
  <rect x="298" y="160" width="28" height="28" rx="3" fill="#1f1f23"><title>Fri 08:00 — 0 min</title></rect>
  <rect x="329" y="160" width="28" height="28" rx="3" fill="#1f1f23"><title>Fri 09:00 — 0 min</title></rect>
  <rect x="360" y="160" width="28" height="28" rx="3" fill="#1f1f23"><title>Fri 10:00 — 0 min</title></rect>
  <rect x="391" y="160" width="28" height="28" rx="3" fill="#1f1f23"><title>Fri 11:00 — 0 min</title></rect>
  <rect x="422" y="160" width="28" height="28" rx="3" fill="#1f1f23"><title>Fri 12:00 — 0 min</title></rect>
  <rect x="453" y="160" width="28" height="28" rx="3" fill="#1f1f23"><title>Fri 13:00 — 0 min</title></rect>
  <rect x="484" y="160" width="28" height="28" rx="3" fill="#1f1f23"><title>Fri 14:00 — 0 min</title></rect>
  <rect x="515" y="160" width="28" height="28" rx="3" fill="#1f1f23"><title>Fri 15:00 — 0 min</title></rect>
  <rect x="546" y="160" width="28" height="28" rx="3" fill="#1f1f23"><title>Fri 16:00 — 0 min</title></rect>
  <rect x="577" y="160" width="28" height="28" rx="3" fill="#1f1f23"><title>Fri 17:00 — 0 min</title></rect>
  <rect x="608" y="160" width="28" height="28" rx="3" fill="#1f1f23"><title>Fri 18:00 — 0 min</title></rect>
  <rect x="639" y="160" width="28" height="28" rx="3" fill="#1f1f23"><title>Fri 19:00 — 0 min</title></rect>
  <rect x="670" y="160" width="28" height="28" rx="3" fill="#1f1f23"><title>Fri 20:00 — 0 min</title></rect>
  <rect x="701" y="160" width="28" height="28" rx="3" fill="#1f1f23"><title>Fri 21:00 — 0 min</title></rect>
  <rect x="732" y="160" width="28" height="28" rx="3" fill="#1f1f23"><title>Fri 22:00 — 0 min</title></rect>
  <rect x="763" y="160" width="28" height="28" rx="3" fill="#1f1f23"><title>Fri 23:00 — 0 min</title></rect>
  <rect x="50" y="191" width="28" height="28" rx="3" fill="#1f1f23"><title>Sat 00:00 — 0 min</title></rect>
  <rect x="81" y="191" width="28" height="28" rx="3" fill="#1f1f23"><title>Sat 01:00 — 0 min</title></rect>
  <rect x="112" y="191" width="28" height="28" rx="3" fill="#1f1f23"><title>Sat 02:00 — 0 min</title></rect>
  <rect x="143" y="191" width="28" height="28" rx="3" fill="#1f1f23"><title>Sat 03:00 — 0 min</title></rect>
  <rect x="174" y="191" width="28" height="28" rx="3" fill="#1f1f23"><title>Sat 04:00 — 0 min</title></rect>
  <rect x="205" y="191" width="28" height="28" rx="3" fill="#1f1f23"><title>Sat 05:00 — 0 min</title></rect>
  <rect x="236" y="191" width="28" height="28" rx="3" fill="#1f1f23"><title>Sat 06:00 — 0 min</title></rect>
  <rect x="267" y="191" width="28" height="28" rx="3" fill="#1f1f23"><title>Sat 07:00 — 0 min</title></rect>
  <rect x="298" y="191" width="28" height="28" rx="3" fill="#1f1f23"><title>Sat 08:00 — 0 min</title></rect>
  <rect x="329" y="191" width="28" height="28" rx="3" fill="#1f1f23"><title>Sat 09:00 — 0 min</title></rect>
  <rect x="360" y="191" width="28" height="28" rx="3" fill="#1f1f23"><title>Sat 10:00 — 0 min</title></rect>
  <rect x="391" y="191" width="28" height="28" rx="3" fill="#1f1f23"><title>Sat 11:00 — 0 min</title></rect>
  <rect x="422" y="191" width="28" height="28" rx="3" fill="#1f1f23"><title>Sat 12:00 — 0 min</title></rect>
  <rect x="453" y="191" width="28" height="28" rx="3" fill="#1f1f23"><title>Sat 13:00 — 0 min</title></rect>
  <rect x="484" y="191" width="28" height="28" rx="3" fill="#1f1f23"><title>Sat 14:00 — 0 min</title></rect>
  <rect x="515" y="191" width="28" height="28" rx="3" fill="#1f1f23"><title>Sat 15:00 — 0 min</title></rect>
  <rect x="546" y="191" width="28" height="28" rx="3" fill="#1f1f23"><title>Sat 16:00 — 0 min</title></rect>
  <rect x="577" y="191" width="28" height="28" rx="3" fill="#1f1f23"><title>Sat 17:00 — 0 min</title></rect>
  <rect x="608" y="191" width="28" height="28" rx="3" fill="#1f1f23"><title>Sat 18:00 — 0 min</title></rect>
  <rect x="639" y="191" width="28" height="28" rx="3" fill="#1f1f23"><title>Sat 19:00 — 0 min</title></rect>
  <rect x="670" y="191" width="28" height="28" rx="3" fill="#1f1f23"><title>Sat 20:00 — 0 min</title></rect>
  <rect x="701" y="191" width="28" height="28" rx="3" fill="#26a641"><title>Sat 21:00 — 44 min</title></rect>
  <rect x="732" y="191" width="28" height="28" rx="3" fill="#39d353"><title>Sat 22:00 — 58 min</title></rect>
  <rect x="763" y="191" width="28" height="28" rx="3" fill="#006d32"><title>Sat 23:00 — 19 min</title></rect>
  <rect x="50" y="222" width="28" height="28" rx="3" fill="#1f1f23"><title>Sun 00:00 — 0 min</title></rect>
  <rect x="81" y="222" width="28" height="28" rx="3" fill="#1f1f23"><title>Sun 01:00 — 0 min</title></rect>
  <rect x="112" y="222" width="28" height="28" rx="3" fill="#1f1f23"><title>Sun 02:00 — 0 min</title></rect>
  <rect x="143" y="222" width="28" height="28" rx="3" fill="#1f1f23"><title>Sun 03:00 — 0 min</title></rect>
  <rect x="174" y="222" width="28" height="28" rx="3" fill="#1f1f23"><title>Sun 04:00 — 0 min</title></rect>
  <rect x="205" y="222" width="28" height="28" rx="3" fill="#1f1f23"><title>Sun 05:00 — 0 min</title></rect>
  <rect x="236" y="222" width="28" height="28" rx="3" fill="#1f1f23"><title>Sun 06:00 — 0 min</title></rect>
  <rect x="267" y="222" width="28" height="28" rx="3" fill="#1f1f23"><title>Sun 07:00 — 0 min</title></rect>
  <rect x="298" y="222" width="28" height="28" rx="3" fill="#1f1f23"><title>Sun 08:00 — 0 min</title></rect>
  <rect x="329" y="222" width="28" height="28" rx="3" fill="#1f1f23"><title>Sun 09:00 — 0 min</title></rect>
  <rect x="360" y="222" width="28" height="28" rx="3" fill="#1f1f23"><title>Sun 10:00 — 0 min</title></rect>
  <rect x="391" y="222" width="28" height="28" rx="3" fill="#1f1f23"><title>Sun 11:00 — 0 min</title></rect>
  <rect x="422" y="222" width="28" height="28" rx="3" fill="#1f1f23"><title>Sun 12:00 — 0 min</title></rect>
  <rect x="453" y="222" width="28" height="28" rx="3" fill="#1f1f23"><title>Sun 13:00 — 0 min</title></rect>
  <rect x="484" y="222" width="28" height="28" rx="3" fill="#1f1f23"><title>Sun 14:00 — 0 min</title></rect>
  <rect x="515" y="222" width="28" height="28" rx="3" fill="#1f1f23"><title>Sun 15:00 — 0 min</title></rect>
  <rect x="546" y="222" width="28" height="28" rx="3" fill="#1f1f23"><title>Sun 16:00 — 0 min</title></rect>
  <rect x="577" y="222" width="28" height="28" rx="3" fill="#1f1f23"><title>Sun 17:00 — 0 min</title></rect>
  <rect x="608" y="222" width="28" height="28" rx="3" fill="#1f1f23"><title>Sun 18:00 — 0 min</title></rect>
  <rect x="639" y="222" width="28" height="28" rx="3" fill="#1f1f23"><title>Sun 19:00 — 0 min</title></rect>
  <rect x="670" y="222" width="28" height="28" rx="3" fill="#1f1f23"><title>Sun 20:00 — 0 min</title></rect>
  <rect x="701" y="222" width="28" height="28" rx="3" fill="#1f1f23"><title>Sun 21:00 — 0 min</title></rect>
  <rect x="732" y="222" width="28" height="28" rx="3" fill="#1f1f23"><title>Sun 22:00 — 0 min</title></rect>
  <rect x="763" y="222" width="28" height="28" rx="3" fill="#1f1f23"><title>Sun 23:00 — 0 min</title></rect>
</svg>
